# xmcd
#
# Track frame offsets:
#	150
#	15942
#	31020
#	48145
#	67922
#	86048
#	100801
#	117088
#	134423
#	156783
#	159986
#	177644
#	194743
#	209900
#	223772
#
# Disc length: 3215 seconds
#
# Revision: 0
# Processed by: cddbd v1.5.2PL0 Copyright (c) Steve Scherf et al.
# Submitted via: dBpowerAMP V4.0
#
DISCID=ce0c8d0f
DTITLE=Jurassic 5 - Feedback
DYEAR=2006
DGENRE=Hip-Hop
TTITLE0=Back 4 You
TTITLE1=Radio
TTITLE2=Brown Girl
TTITLE3=Gotta Understand
TTITLE4=In the House
TTITLE5=Baby Please
TTITLE6=Work it Out
TTITLE7=Where We At
TTITLE8=Get it Together
TTITLE9=Future Sound
TTITLE10=J Resume - Skit
TTITLE11=Red Hot
TTITLE12=Turn it Out
TTITLE13=End Up Like This
TTITLE14=Canto de Ossanha
EXTD=
EXTT0=
EXTT1=
EXTT2=
EXTT3=
EXTT4=
EXTT5=
EXTT6=
EXTT7=
EXTT8=
EXTT9=
EXTT10=
EXTT11=
EXTT12=
EXTT13=
EXTT14=
PLAYORDER=
